<svg height="503pt" viewBox="-2 0 503 503.19948" width="503pt" xmlns="http://www.w3.org/2000/svg"><path d="m374.074219 155.542969h-.488281c-2.222657-.125-4.308594-1.128907-5.789063-2.792969-1.484375-1.664062-2.246094-3.847656-2.117187-6.070312 1.648437-19.402344 1.046874-38.933594-1.789063-58.199219-.878906-4.554688 2.101563-8.957031 6.652344-9.832031 4.550781-.878907 8.953125 2.097656 9.832031 6.648437 3.109375 20.628906 3.800781 41.550781 2.066406 62.339844-.257812 4.433593-3.925781 7.902343-8.367187 7.90625zm0 0" fill="#cb9080"/><path d="m220.632812 169.140625c-3.457031.003906-6.558593-2.113281-7.820312-5.328125-1.261719-3.21875-.425781-6.878906 2.113281-9.226562 18.773438-17.382813 68.1875-60.433594 121.460938-85.058594 4.207031-1.941406 9.195312-.105469 11.136719 4.105468 1.941406 4.207032.105468 9.195313-4.105469 11.136719-51.089844 23.585938-98.898438 65.300781-117.078125 82.136719-1.554688 1.4375-3.589844 2.234375-5.707032 2.234375zm0 0" fill="#cb9080"/><path d="m372.058594 86.894531c18.007812-6.191406 32.425781-19.917969 39.5-37.59375 4.953125-12.1875 9.777344-36.40625-6.941406-39.726562-46.835938-9.308594-59.007813 39.566406-64.402344 57.746093-5.039063 17.011719 11.992187 23.097657 25.890625 20.914063 2.011719-.3125 4-.761719 5.953125-1.339844zm0 0" fill="#4caf50"/><path d="m395.972656 462.40625c-10.007812 6.316406-21.066406 10.78125-32.652344 13.179688l-33.574218.417968c-5.757813-1.175781-11.324219-3.152344-16.535156-5.875-.871094-.351562-1.710938-.773437-2.515626-1.257812-32.484374-18.464844-50.195312-51.703125-60.601562-86.371094l46.835938-128.167969c2.433593-.585937 4.949218-1.257812 7.554687-1.761719 36.28125-6.796874 73.394531-7.984374 110.035156-3.523437.066407.0625.160157.09375.253907.082031 27.613281 3.527344 48.175781 10.410156 50.023437 19.726563 1.007813 5.117187 1.847656 10.40625 2.433594 15.695312 7.808593 65.132813-14.183594 142.015625-71.257813 177.855469zm0 0" fill="#bfa885"/><path d="m367.265625 456.699219c-10.003906 6.316406-21.0625 10.78125-32.652344 13.179687l-21.402343.25c-.871094-.351562-1.710938-.773437-2.515626-1.257812-32.484374-18.464844-50.195312-51.703125-60.601562-86.371094l46.835938-128.167969c2.433593-.585937 4.949218-1.257812 7.554687-1.761719 36.28125-6.796874 73.394531-7.984374 110.035156-3.523437.066407.0625.160157.09375.253907.082031 12.253906 3.695313 20.226562 8.394532 21.320312 14.019532 1.003906 5.117187 1.84375 10.40625 2.433594 15.695312 7.804687 65.132812-14.1875 142.015625-71.261719 177.855469zm0 0" fill="#ffe0b2"/><path d="m467.230469 284.550781c-.585938-5.289062-1.425781-10.578125-2.433594-15.695312-.839844-4.367188-5.789063-8.144531-13.679687-11.25-22.578126-9.316407-69.332032-13.34375-111.214844-9.988281-11.90625.835937-23.742188 2.488281-35.417969 4.953124l-2.269531-3.945312-41.714844-73.355469c21.492188-14.28125 45.890625-23.601562 71.429688-27.28125 13.960937-1.957031 28.105468-2.238281 42.132812-.839843 29.640625 2.78125 57.734375 14.488281 80.578125 33.574218 28.117187 23.839844 58.585937 83.097656 12.589844 103.828125zm0 0" fill="#4e342e"/><path d="m451.117188 257.605469c-22.578126-9.316407-69.332032-13.34375-111.214844-9.988281-12.570313-.292969-25.148438.042968-37.6875 1.007812l-41.714844-73.355469c21.492188-14.28125 45.890625-23.601562 71.429688-27.28125l3.019531.253907c29.640625 2.777343 57.734375 14.484374 80.578125 33.574218 19.472656 16.449219 39.953125 49.855469 35.589844 75.789063zm0 0" fill="#795548"/><path d="m314.304688 336.671875c-8.65625 10.6875-20.1875 18.667969-33.238282 23-5.730468 1.757813-11.769531 2.273437-17.710937 1.511719l-39.03125-16.957032-181.382813-78.980468c-17.960937-31.476563-.753906-76.632813 25.183594-97.28125 52.457031-41.714844 113.476562-19.386719 165.347656-3.1875.085938 0 .253906.082031.335938.082031 27.207031 7.863281 52.171875 22.039063 72.855468 41.378906 4.863282 4.691407 9.300782 9.804688 13.261719 15.277344 25.03125 35.054687 22.707031 82.710937-5.621093 115.15625zm0 0" fill="#4e342e"/><path d="m273.929688 319.550781c-8.652344 10.6875-20.1875 18.667969-33.238282 23-5.296875 1.605469-10.851562 2.171875-16.367187 1.675781l-181.382813-78.980468c-17.960937-31.476563-.753906-76.632813 25.183594-97.28125 52.457031-41.714844 113.476562-19.386719 165.347656-3.1875 11.949219 6.65625 22.980469 14.835937 32.820313 24.339844 4.863281 4.691406 9.300781 9.804687 13.261719 15.277343 25.03125 35.050781 22.703124 82.710938-5.625 115.15625zm0 0" fill="#795548"/><path d="m265.371094 348.675781c-1.164063 12.667969-6.542969 24.578125-15.277344 33.824219-.421875.503906-.839844 1.007812-1.257812 1.429688-30.554688 32.144531-64.210938 63.539062-107.941407 75.875-22.890625 6.589843-47.140625 6.851562-70.167969.757812l-30.300781-14.605469c-3.257812-2.410156-6.289062-5.105469-9.066406-8.058593-3.230469-3.253907-6.128906-6.824219-8.644531-10.660157-12.625-21.035156-17.046875-45.992187-12.421875-70.085937 3.613281-19.796875 9.554687-39.09375 17.710937-57.492188 5.707032-13.933594 17.121094-32.316406 17.121094-47.59375 0-8.390625 50.359375-16.785156 117.507812 8.394532 15.601563 5.59375 30.875 12.066406 45.746094 19.390624 30.132813 15.359376 58.585938 37.433594 56.992188 68.824219zm0 0" fill="#bfa885"/><path d="m238.089844 331.890625c-1.160156 12.664063-6.539063 24.578125-15.273438 33.824219-.421875.503906-.839844 1.007812-1.261718 1.425781-30.550782 32.148437-64.210938 63.539063-107.9375 75.878906-22.894532 6.589844-47.140626 6.847657-70.171876.753907l-12.085937-5.875c-3.230469-3.253907-6.128906-6.824219-8.644531-10.660157-12.625-21.035156-17.046875-45.992187-12.421875-70.085937 3.613281-19.796875 9.554687-39.09375 17.710937-57.492188 5.707032-13.933594 17.121094-32.316406 17.121094-47.59375 0-8.390625 50.359375-16.785156 117.507812 8.394532 15.601563 5.59375 30.875 12.066406 45.746094 19.390624 17.960938 13.511719 30.804688 30.632813 29.710938 52.039063zm0 0" fill="#ffe0b2"/><path d="m65.328125 436.367188c8.03125 4.632812 10.78125 14.902343 6.144531 22.929687l-12.589844 21.808594c-4.636718 8.027343-14.902343 10.777343-22.929687 6.144531-8.03125-4.636719-10.78125-14.902344-6.144531-22.933594l12.589844-21.804687c4.636718-8.03125 14.902343-10.78125 22.929687-6.144531zm0 0" fill="#795548"/><path d="m344.894531 436.085938c9.261719-.378907 17.082031 6.820312 17.460938 16.085937l1.03125 25.15625c.378906 9.265625-6.820313 17.082031-16.082031 17.460937-9.265626.382813-17.082032-6.820312-17.464844-16.082031l-1.03125-25.160156c-.378906-9.261719 6.820312-17.082031 16.085937-17.460937zm0 0" fill="#795548"/><path d="m460.070312 174.320312c-22.035156-18.429687-48.777343-30.347656-77.21875-34.414062.898438-15.863281.457032-31.777344-1.316406-47.566406 17.160156-8.085938 30.667969-22.316406 37.84375-39.875 1.679688-4.199219 9.753906-25.71875 1.949219-40.191406-3.0625-5.757813-8.609375-9.78125-15.03125-10.910157-52.5625-10.425781-67.761719 41.707031-73.476563 61.347657l-.65625 2.234374c-.675781 2.335938-1.050781 4.746094-1.125 7.175782-40.824218 21.296875-78.644531 47.914062-112.472656 79.15625-48.058594-14.90625-105.707031-29.609375-155.597656 10.074218-27.957031 22.242188-45.886719 69.664063-29.082031 104.347657-2.363281 6.292969-5.054688 12.457031-8.066407 18.464843-2.074218 4.332032-4.046874 8.484376-5.625 12.328126-8.371093 19.015624-14.480468 38.945312-18.195312 59.386718-4.984375 26.160156-.085938 53.242188 13.75 76 3.914062 5.914063 8.570312 11.304688 13.855469 16.03125l-7.042969 12.207032c-4.496094 7.796874-4.492188 17.398437.007812 25.191406 4.503907 7.796875 12.824219 12.59375 21.824219 12.589844 9 0 17.316407-4.804688 21.816407-12.601563l8.71875-15.109375c9.46875 2.089844 19.136718 3.136719 28.832031 3.121094 13.335937.003906 26.609375-1.824219 39.449219-5.4375 42.855468-12.085938 75.828124-41.21875 103.355468-69.503906 13.378906 36.929687 33.054688 62.496093 59.964844 77.796874 4.871094 2.6875 10.035156 4.804688 15.394531 6.304688 2.0625 11.996094 12.476563 20.753906 24.648438 20.730469h1.058593c11.890626-.492188 21.8125-9.246094 23.789063-20.984375 10.238281-2.773438 20.011719-7.042969 29.007813-12.671875 60.734374-38.140625 81.507812-116.839844 75.664062-180.109375 12.363281-6.675782 20.789062-18.867188 22.664062-32.792969 4.046876-28.746094-16.914062-63.855469-38.6875-82.320313zm-222.886718-17.175781c30.210937-27.070312 63.660156-50.296875 99.582031-69.144531 6.390625 6.136719 15.003906 9.410156 23.859375 9.066406 1.480469 0 2.988281-.203125 4.492188-.351562 1.382812 13.808594 1.707031 27.703125.964843 41.5625-37.304687-1.851563-74.289062 7.722656-106.007812 27.445312-7.472657-3.261718-15.113281-6.125-22.890625-8.578125zm111.078125-87.449219.707031-2.285156c7.722656-26.546875 18.566406-50.585937 44.425781-50.585937 3.230469.015625 6.453125.351562 9.617188 1 1.511719.160156 2.839843 1.066406 3.535156 2.417969 2.140625 8.691406 1.171875 17.855468-2.734375 25.910156-6.050781 15.363281-18.503906 27.320312-34.105469 32.734375-1.59375.476562-3.214843.847656-4.859375 1.105469-5.5625 1.25-11.394531-.007813-15.945312-3.441407-.546875-.652343-1.984375-2.296875-.640625-6.855469zm-274.875 104.824219c46.164062-36.769531 101.066406-19.515625 149.46875-4.296875l8.453125 2.644532c8.375 2.625 16.582031 5.761718 24.566406 9.402343.070312.03125.140625.0625.210938.089844 16.539062 7.300781 31.679687 17.421875 44.746093 29.914063 4.519531 4.363281 8.644531 9.113281 12.328125 14.203124 22.820313 31.882813 20.648438 75.292969-5.234375 104.742188-7.582031 9.464844-17.734375 16.546875-29.234375 20.394531-1.746094.476563-3.519531.824219-5.316406 1.042969.152344-1.183594.3125-2.375.378906-3.542969 2.855469-54.816406-72.132812-82.976562-108.175781-96.523437-56.210937-21.070313-105.058594-20.164063-121.292969-11.433594-1.175781-25.527344 9.578125-50.148438 29.101563-66.636719zm-21.824219 302.382813c-1.449219 2.695312-4.25 4.386718-7.308594 4.414062-3.058594.03125-5.890625-1.605468-7.394531-4.269531-1.5-2.664063-1.433594-5.9375.175781-8.539063l12.589844-21.820312c1.105469-1.933594 2.941406-3.34375 5.09375-3.914062.710938-.191407 1.445312-.289063 2.183594-.292969 2.996094.007812 5.761718 1.609375 7.253906 4.203125 1.496094 2.597656 1.496094 5.792968-.003906 8.386718zm87-25.179688c-18.476562 5.230469-37.902344 6.183594-56.800781 2.785156 1.632812-10.804687-3.921875-21.425781-13.730469-26.246093-9.808594-4.820313-21.609375-2.730469-29.167969 5.164062-3.453125-3.273437-6.550781-6.90625-9.230469-10.835937-11.5-19.292969-15.460937-42.15625-11.113281-64.195313 3.546875-19.125 9.308594-37.769531 17.171875-55.5625 1.460938-3.558593 3.308594-7.414062 5.230469-11.441406 3.839844-7.585937 7.121094-15.4375 9.820313-23.5.101562-.296875.1875-.59375.257812-.898437 1.175781-3.828126 1.953125-7.765626 2.316406-11.75 9.089844-3.828126 48.984375-8.460938 106.285156 13.03125 32.308594 12.128906 99.523438 37.378906 97.316407 79.90625-1.070313 10.863281-5.75 21.054687-13.289063 28.949218-.261718.347656-.542968.679688-.839844 1-27.804687 29.21875-61.050781 61.429688-104.1875 73.601563zm214.222656 32.003906c-1.515625 1.648438-3.632812 2.621094-5.875 2.703126-2.226562.128906-4.410156-.671876-6.023437-2.214844-1.652344-1.519532-2.625-3.636719-2.703125-5.875l-1.035156-25.183594c-.089844-2.222656.707031-4.394531 2.21875-6.03125 1.507812-1.636719 3.605468-2.605469 5.832031-2.695312h.410156c4.503906-.003907 8.210937 3.546874 8.394531 8.046874l1.03125 25.179688c.101563 2.246094-.710937 4.433594-2.25 6.070312zm38.710938-28.394531c-6.332032 3.960938-13.125 7.128907-20.226563 9.433594l-.527343-12.933594c-.570313-13.894531-12.296876-24.699219-26.195313-24.128906-13.894531.570313-24.695313 12.296875-24.125 26.191406l.4375 10.503907c-2.0625-.816407-4.070313-1.753907-6.019531-2.8125-25.179688-14.328126-43.269532-39.710938-55.296875-77.222657 3.523437-4.433593 6.496093-9.28125 8.847656-14.433593h.191406c5.050781-.027344 10.066407-.777344 14.898438-2.234376 14.605469-4.761718 27.523437-13.648437 37.191406-25.582031 19.335937-22.449219 28.0625-52.136719 23.957031-81.476562 44.351563-9.878907 90.136719-6.035157 106.816406 4.425781 2.296876 1.125 4.109376 3.042969 5.101563 5.402344 1 5.078125 1.777344 10.132812 2.332031 15.109375 7.09375 58.964843-11.011718 134.363281-67.382812 169.730469zm90.652344-201.03125c-.839844 6.238281-3.902344 11.96875-8.621094 16.132813-.195313-1.074219-.277344-2.109375-.496094-3.183594-1.707031-7-6.300781-12.953125-12.640625-16.382812-22.585937-14.160157-73.8125-16.738282-119.546875-6.546876-3.199219-9.925781-7.960938-19.277343-14.109375-27.699218-4.238281-5.855469-8.984375-11.328125-14.1875-16.347656-10.359375-10.035157-21.992187-18.660157-34.605469-25.660157 29.148438-15.695312 62.316406-22.332031 95.257813-19.070312 27.957031 2.609375 54.460937 13.636719 76.019531 31.625 18.207031 15.378906 35.964844 45.453125 32.917969 67.105469zm0 0"/><path d="m83.011719 270.054688c-3.96875-2.378907-9.117188-1.097657-11.503907 2.871093-15.777343 26.976563-27.441406 56.160157-34.609374 86.578125-.445313 2.179688-.003907 4.449219 1.222656 6.308594 1.226562 1.855469 3.144531 3.152344 5.324218 3.59375.554688.117188 1.117188.171875 1.679688.167969 3.984375 0 7.421875-2.808594 8.21875-6.714844 6.859375-28.519531 17.820312-55.890625 32.539062-81.261719 1.15625-1.910156 1.5-4.203125.960938-6.367187-.539062-2.167969-1.917969-4.027344-3.832031-5.175781zm0 0"/><path d="m53.519531 394.757812c0 4.632813-3.757812 8.390626-8.394531 8.390626s-8.394531-3.757813-8.394531-8.390626c0-4.636718 3.757812-8.394531 8.394531-8.394531s8.394531 3.757813 8.394531 8.394531zm0 0"/></svg>